<svg width="148" height="66" viewBox="0 0 148 66" fill="none" xmlns="http://www.w3.org/2000/svg">
<g filter="url(#filter0_f_519_137)">
<path d="M47.79 51H41.3936V36.6934H18.835C18.3792 36.6934 17.9561 36.612 17.5654 36.4492C17.1748 36.2702 16.833 36.0423 16.54 35.7656C16.2633 35.4727 16.0436 35.1309 15.8809 34.7402C15.7181 34.3496 15.6367 33.9346 15.6367 33.4951V15.9902H21.9844V30.2969H41.3936V15.9902H47.79V51ZM132.751 51H126.354V36.6934H103.796C103.34 36.6934 102.917 36.612 102.526 36.4492C102.136 36.2702 101.794 36.0423 101.501 35.7656C101.224 35.4727 101.005 35.1309 100.842 34.7402C100.679 34.3496 100.598 33.9346 100.598 33.4951V15.9902H106.945V30.2969H126.354V15.9902H132.751V51Z" fill="#0DFFE6"/>
<path d="M95.2021 36.3516C95.2021 37.7839 95.015 39.1429 94.6406 40.4287C94.2826 41.6982 93.7699 42.8783 93.1025 43.9688C92.4352 45.0592 91.6458 46.0358 90.7344 46.8984C89.8229 47.7611 88.8219 48.5016 87.7314 49.1201C86.6572 49.7223 85.5098 50.1862 84.2891 50.5117C83.0684 50.8372 81.8232 51 80.5537 51H69.1035C67.8177 51 66.5645 50.8372 65.3438 50.5117C64.123 50.1862 62.9674 49.7223 61.877 49.1201C60.8027 48.5016 59.8099 47.7611 58.8984 46.8984C57.987 46.0358 57.1976 45.0592 56.5303 43.9688C55.8792 42.8783 55.3665 41.6982 54.9922 40.4287C54.6341 39.1429 54.4551 37.7839 54.4551 36.3516V30.6387C54.4551 28.4902 54.8538 26.5208 55.6514 24.7305C56.4652 22.9401 57.5475 21.402 58.8984 20.1162C60.2493 18.8141 61.8037 17.805 63.5615 17.0889C65.3356 16.3564 67.1829 15.9902 69.1035 15.9902H80.5537C81.8232 15.9902 83.0684 16.153 84.2891 16.4785C85.5098 16.804 86.6572 17.276 87.7314 17.8945C88.8219 18.4967 89.8229 19.2292 90.7344 20.0918C91.6458 20.9544 92.4352 21.931 93.1025 23.0215C93.7699 24.112 94.2826 25.3001 94.6406 26.5859C95.015 27.8555 95.2021 29.2064 95.2021 30.6387V36.3516ZM88.8057 30.6387C88.8057 29.3854 88.5778 28.2461 88.1221 27.2207C87.6663 26.1953 87.056 25.3164 86.291 24.584C85.5423 23.8516 84.6715 23.29 83.6787 22.8994C82.6859 22.5088 81.6442 22.3216 80.5537 22.3379H69.1035C68.0456 22.3216 67.012 22.5088 66.0029 22.8994C65.0101 23.2738 64.123 23.8271 63.3418 24.5596C62.5768 25.2757 61.9583 26.1546 61.4863 27.1963C61.0306 28.2217 60.8027 29.3691 60.8027 30.6387V36.3516C60.8027 37.6211 61.0306 38.7686 61.4863 39.7939C61.9421 40.8193 62.5524 41.6982 63.3174 42.4307C64.0824 43.1468 64.9613 43.7002 65.9541 44.0908C66.9632 44.4814 68.013 44.6686 69.1035 44.6523H80.5537C81.807 44.6523 82.9382 44.4489 83.9473 44.042C84.9727 43.6188 85.8434 43.041 86.5596 42.3086C87.2757 41.5762 87.8291 40.7054 88.2197 39.6963C88.6104 38.6709 88.8057 37.556 88.8057 36.3516V30.6387ZM86.0469 26C86.291 26.3581 86.4538 26.7487 86.5352 27.1719C86.6165 27.5788 86.6165 27.9857 86.5352 28.3926C86.4538 28.7832 86.291 29.1576 86.0469 29.5156C85.819 29.8574 85.5179 30.1504 85.1436 30.3945L68.0049 41.8447C67.7282 42.0563 67.4434 42.2028 67.1504 42.2842C66.8574 42.3656 66.5563 42.4062 66.2471 42.4062C65.7262 42.4062 65.2298 42.2842 64.7578 42.04C64.2858 41.7959 63.9033 41.446 63.6104 40.9902C63.3662 40.6322 63.2035 40.2497 63.1221 39.8428C63.0407 39.4196 63.0326 39.0127 63.0977 38.6221C63.179 38.2152 63.3337 37.8408 63.5615 37.499C63.7894 37.141 64.0905 36.8398 64.4648 36.5957L81.6523 25.1455C82.0104 24.9014 82.3929 24.7386 82.7998 24.6572C83.223 24.5758 83.6299 24.5758 84.0205 24.6572C84.4274 24.7386 84.8018 24.8932 85.1436 25.1211C85.5016 25.349 85.8027 25.6419 86.0469 26Z" fill="#FFC01E"/>
</g>
<g filter="url(#filter1_f_519_137)">
<path d="M47.79 51H41.3936V36.6934H18.835C18.3792 36.6934 17.9561 36.612 17.5654 36.4492C17.1748 36.2702 16.833 36.0423 16.54 35.7656C16.2633 35.4727 16.0436 35.1309 15.8809 34.7402C15.7181 34.3496 15.6367 33.9346 15.6367 33.4951V15.9902H21.9844V30.2969H41.3936V15.9902H47.79V51ZM132.751 51H126.354V36.6934H103.796C103.34 36.6934 102.917 36.612 102.526 36.4492C102.136 36.2702 101.794 36.0423 101.501 35.7656C101.224 35.4727 101.005 35.1309 100.842 34.7402C100.679 34.3496 100.598 33.9346 100.598 33.4951V15.9902H106.945V30.2969H126.354V15.9902H132.751V51Z" fill="#0DFFE6"/>
<path d="M95.2021 36.3516C95.2021 37.7839 95.015 39.1429 94.6406 40.4287C94.2826 41.6982 93.7699 42.8783 93.1025 43.9688C92.4352 45.0592 91.6458 46.0358 90.7344 46.8984C89.8229 47.7611 88.8219 48.5016 87.7314 49.1201C86.6572 49.7223 85.5098 50.1862 84.2891 50.5117C83.0684 50.8372 81.8232 51 80.5537 51H69.1035C67.8177 51 66.5645 50.8372 65.3438 50.5117C64.123 50.1862 62.9674 49.7223 61.877 49.1201C60.8027 48.5016 59.8099 47.7611 58.8984 46.8984C57.987 46.0358 57.1976 45.0592 56.5303 43.9688C55.8792 42.8783 55.3665 41.6982 54.9922 40.4287C54.6341 39.1429 54.4551 37.7839 54.4551 36.3516V30.6387C54.4551 28.4902 54.8538 26.5208 55.6514 24.7305C56.4652 22.9401 57.5475 21.402 58.8984 20.1162C60.2493 18.8141 61.8037 17.805 63.5615 17.0889C65.3356 16.3564 67.1829 15.9902 69.1035 15.9902H80.5537C81.8232 15.9902 83.0684 16.153 84.2891 16.4785C85.5098 16.804 86.6572 17.276 87.7314 17.8945C88.8219 18.4967 89.8229 19.2292 90.7344 20.0918C91.6458 20.9544 92.4352 21.931 93.1025 23.0215C93.7699 24.112 94.2826 25.3001 94.6406 26.5859C95.015 27.8555 95.2021 29.2064 95.2021 30.6387V36.3516ZM88.8057 30.6387C88.8057 29.3854 88.5778 28.2461 88.1221 27.2207C87.6663 26.1953 87.056 25.3164 86.291 24.584C85.5423 23.8516 84.6715 23.29 83.6787 22.8994C82.6859 22.5088 81.6442 22.3216 80.5537 22.3379H69.1035C68.0456 22.3216 67.012 22.5088 66.0029 22.8994C65.0101 23.2738 64.123 23.8271 63.3418 24.5596C62.5768 25.2757 61.9583 26.1546 61.4863 27.1963C61.0306 28.2217 60.8027 29.3691 60.8027 30.6387V36.3516C60.8027 37.6211 61.0306 38.7686 61.4863 39.7939C61.9421 40.8193 62.5524 41.6982 63.3174 42.4307C64.0824 43.1468 64.9613 43.7002 65.9541 44.0908C66.9632 44.4814 68.013 44.6686 69.1035 44.6523H80.5537C81.807 44.6523 82.9382 44.4489 83.9473 44.042C84.9727 43.6188 85.8434 43.041 86.5596 42.3086C87.2757 41.5762 87.8291 40.7054 88.2197 39.6963C88.6104 38.6709 88.8057 37.556 88.8057 36.3516V30.6387ZM86.0469 26C86.291 26.3581 86.4538 26.7487 86.5352 27.1719C86.6165 27.5788 86.6165 27.9857 86.5352 28.3926C86.4538 28.7832 86.291 29.1576 86.0469 29.5156C85.819 29.8574 85.5179 30.1504 85.1436 30.3945L68.0049 41.8447C67.7282 42.0563 67.4434 42.2028 67.1504 42.2842C66.8574 42.3656 66.5563 42.4062 66.2471 42.4062C65.7262 42.4062 65.2298 42.2842 64.7578 42.04C64.2858 41.7959 63.9033 41.446 63.6104 40.9902C63.3662 40.6322 63.2035 40.2497 63.1221 39.8428C63.0407 39.4196 63.0326 39.0127 63.0977 38.6221C63.179 38.2152 63.3337 37.8408 63.5615 37.499C63.7894 37.141 64.0905 36.8398 64.4648 36.5957L81.6523 25.1455C82.0104 24.9014 82.3929 24.7386 82.7998 24.6572C83.223 24.5758 83.6299 24.5758 84.0205 24.6572C84.4274 24.7386 84.8018 24.8932 85.1436 25.1211C85.5016 25.349 85.8027 25.6419 86.0469 26Z" fill="#FFC01E"/>
</g>
<path d="M45.79 49H43.3936V34.6934H20.835C20.3792 34.6934 19.9561 34.612 19.5654 34.4492C19.1748 34.2702 18.833 34.0423 18.54 33.7656C18.2633 33.4727 18.0436 33.1309 17.8809 32.7402C17.7181 32.3496 17.6367 31.9346 17.6367 31.4951V17.9902H19.9844V32.2969H43.3936V17.9902H45.79V49Z" fill="white"/>
<path d="M93.2021 36.3516C93.2021 37.7839 93.3744 39.2142 93 40.5C92.6419 41.7695 92.7699 41.8783 92.1025 42.9688C91.4352 44.0592 90.6458 45.0358 89.7344 45.8984C88.8229 46.7611 87.8219 47.5016 86.7314 48.1201C85.6572 48.7223 85.1734 49 84.5 49C83 49 81.8232 49 80.5537 49H69.1035C67.8177 49 67.5 49 65.5 49C64.6056 49 63.9674 48.7223 62.877 48.1201C61.8027 47.5016 60.8099 46.7611 59.8984 45.8984C58.987 45.0358 59.1976 45.0592 58.5303 43.9688C57.8792 42.8783 57.3665 41.6982 56.9922 40.4287C56.6341 39.1429 56.4551 37.7839 56.4551 36.3516V30.6387C56.4551 28.4902 56.2025 26.7904 57 25C57.8138 23.2096 57.5475 23.402 58.8984 22.1162C60.2493 20.8141 61.8037 19.805 63.5615 19.0889C65.3356 18.3564 67.1829 17.9902 69.1035 17.9902H80.5537C81.8232 17.9902 83 18 84 18C85.3746 18.0001 85.9258 18.3815 87 19C88.0905 19.6022 88.0885 19.6374 89 20.5C89.9115 21.3626 90.8327 22.4095 91.5 23.5C92.1673 24.5905 92.2826 25.3001 92.6406 26.5859C93.015 27.8555 93.2021 29.2064 93.2021 30.6387V36.3516ZM90.8057 28.6387C90.8057 27.3854 90.5778 26.2461 90.1221 25.2207C89.6663 24.1953 89.056 23.3164 88.291 22.584C87.5423 21.8516 86.6715 21.29 85.6787 20.8994C84.6859 20.5088 83.6442 20.3216 82.5537 20.3379H67.1035C66.0456 20.3216 65.012 20.5088 64.0029 20.8994C63.0101 21.2738 62.123 21.8271 61.3418 22.5596C60.5768 23.2757 59.9583 24.1546 59.4863 25.1963C59.0306 26.2217 58.8027 27.3691 58.8027 28.6387V38.3516C58.8027 39.6211 59.0306 40.7686 59.4863 41.7939C59.9421 42.8193 60.5524 43.6982 61.3174 44.4307C62.0824 45.1468 62.9613 45.7002 63.9541 46.0908C64.9632 46.4814 66.013 46.6686 67.1035 46.6523H82.5537C83.807 46.6523 84.9381 46.4489 85.9473 46.042C86.9727 45.6188 87.8434 45.041 88.5596 44.3086C89.2757 43.5762 89.8291 42.7054 90.2197 41.6963C90.6104 40.6709 90.8057 39.556 90.8057 38.3516V28.6387ZM84.1136 27.1719C84.195 27.5788 84.195 27.7386 84.1136 28.1455C84.0322 28.5361 83.291 29.1576 83.0469 29.5156C82.5 30 82.5 30 82.1436 30.3945L68.0049 39.8447C67.7282 40.0563 67.4434 40.2028 67.1504 40.2842C66.8574 40.3656 66.5563 40.4062 66.2471 40.4062C65.7262 40.4062 65.7656 40.4062 65.7656 40.4062L65.4062 40.2842C65.4062 40.2842 65.2034 40.2497 65.1221 39.8428C65.0407 39.4196 65.0326 40.0127 65.0977 39.6221C65.179 39.2152 65.3337 38.8408 65.5615 38.499C65.7894 38.141 66.0905 37.8398 66.4648 37.5957L80.6523 28.1455C81.0104 27.9014 82 27 82 27C82 27 82.6094 26.4186 83 26.5C83.4069 26.5814 84 27 84 27L84.1136 27.1719Z" fill="white"/>
<path d="M130.653 49H128.257V34.6934H105.698C105.243 34.6934 104.819 34.612 104.429 34.4492C104.038 34.2702 103.696 34.0423 103.403 33.7656C103.127 33.4727 102.907 33.1309 102.744 32.7402C102.581 32.3496 102.5 31.9346 102.5 31.4951V17.9902H104.848V32.2969H128.257V17.9902H130.653V49Z" fill="white"/>
<defs>
<filter id="filter0_f_519_137" x="0.636719" y="0.990234" width="147.114" height="65.0098" filterUnits="userSpaceOnUse" color-interpolation-filters="sRGB">
<feFlood flood-opacity="0" result="BackgroundImageFix"/>
<feBlend mode="normal" in="SourceGraphic" in2="BackgroundImageFix" result="shape"/>
<feGaussianBlur stdDeviation="7.5" result="effect1_foregroundBlur_519_137"/>
</filter>
<filter id="filter1_f_519_137" x="13.6367" y="13.9902" width="121.114" height="39.0098" filterUnits="userSpaceOnUse" color-interpolation-filters="sRGB">
<feFlood flood-opacity="0" result="BackgroundImageFix"/>
<feBlend mode="normal" in="SourceGraphic" in2="BackgroundImageFix" result="shape"/>
<feGaussianBlur stdDeviation="1" result="effect1_foregroundBlur_519_137"/>
</filter>
</defs>
</svg>
